<?xml version="1.0" standalone="no"?>
<!DOCTYPE svg PUBLIC "-//W3C//DTD SVG 20010904//EN"
 "http://www.w3.org/TR/2001/REC-SVG-20010904/DTD/svg10.dtd">
<svg version="1.0" xmlns="http://www.w3.org/2000/svg"
 width="1024.000000pt" height="1024.000000pt" viewBox="0 0 1024.000000 1024.000000"
 preserveAspectRatio="xMidYMid meet">

<g transform="translate(0.000000,1024.000000) scale(0.100000,-0.100000)"
fill="#000000" stroke="none">
<path d="M1265 10233 c-318 -29 -616 -172 -850 -407 -201 -201 -323 -428 -387
-719 l-23 -102 0 -3885 c0 -3706 1 -3889 18 -3974 60 -293 183 -524 391 -731
201 -201 428 -323 719 -387 l102 -23 3885 0 c3706 0 3889 1 3974 18 293 60
524 183 731 391 201 201 323 428 387 719 l23 102 0 3885 c0 3706 -1 3889 -18
3974 -60 293 -183 524 -391 731 -200 199 -423 320 -714 387 l-97 23 -3855 1
c-2120 0 -3873 -1 -3895 -3z m3927 -2568 c20 -3 63 -25 95 -48 32 -23 148
-103 258 -177 110 -74 396 -267 635 -428 239 -161 680 -458 980 -659 300 -201
571 -386 604 -411 105 -81 96 34 95 -1227 -1 -605 -4 -1308 -6 -1563 -5 -454
-6 -463 -27 -495 -12 -17 -42 -43 -66 -57 l-45 -25 -567 0 -568 0 -32 33 c-32
32 -33 34 -36 137 l-4 105 35 35 35 35 471 0 471 0 -1 1393 0 1392 -567 378
c-312 208 -662 442 -777 520 -855 577 -1040 700 -1050 700 -6 0 -313 -202
-681 -448 -368 -247 -905 -607 -1194 -800 l-525 -350 -3 -1392 -2 -1393 471 0
471 0 34 -34 c34 -34 34 -34 34 -128 0 -74 -4 -99 -20 -125 -36 -60 -15 -58
-625 -58 l-560 0 -45 25 c-24 14 -54 39 -66 57 -22 32 -22 34 -29 845 -3 447
-5 1158 -3 1579 l3 766 28 36 c36 48 90 85 977 679 415 277 954 638 1197 801
272 183 456 301 480 306 37 9 50 9 125 -4z m63 -1601 c25 -8 108 -50 183 -93
115 -66 662 -376 1066 -605 126 -71 193 -136 228 -224 l23 -57 -2 -750 c-3
-653 -5 -756 -19 -797 -21 -65 -100 -150 -183 -195 -36 -20 -111 -65 -166 -99
-55 -34 -220 -132 -366 -217 -146 -86 -297 -174 -335 -198 -172 -105 -378
-219 -426 -235 -107 -35 -243 -16 -383 54 -42 20 -875 508 -1165 681 -102 61
-153 108 -188 176 l-27 50 -5 510 c-4 281 -5 625 -5 765 2 401 -4 392 470 659
171 96 427 240 570 321 328 184 449 250 483 260 48 15 198 11 247 -6z"/>
<path d="M4975 5672 c-340 -189 -921 -516 -928 -523 -10 -8 -36 7 596 -352
257 -147 472 -267 478 -267 9 0 102 52 806 453 l282 160 -167 94 c-92 52 -321
182 -509 289 -292 166 -400 224 -415 224 -2 0 -66 -35 -143 -78z"/>
<path d="M3820 4267 l0 -613 78 -46 c42 -25 228 -135 412 -243 184 -109 402
-238 483 -286 82 -49 150 -89 153 -89 2 0 3 280 2 622 l-3 621 -65 35 c-60 33
-988 567 -1037 598 l-23 14 0 -613z"/>
<path d="M5950 4607 c-256 -147 -508 -292 -560 -320 l-95 -52 -3 -623 c-1
-342 0 -622 2 -622 2 0 66 37 142 83 77 46 270 159 429 252 337 196 513 300
538 319 16 12 17 51 15 622 l-3 609 -465 -268z"/>
</g>
</svg>
